<svg clip-rule="evenodd" fill-rule="evenodd" stroke-linejoin="round" stroke-miterlimit="2" viewBox="0 0 150 150" xmlns="http://www.w3.org/2000/svg"><path d="m93.75 8.333v-4.166c0-2.302 1.865-4.167 4.167-4.167h12.5c2.301 0 4.166 1.865 4.166 4.167v8.333h4.167c4.599 0 8.333 3.734 8.333 8.333v120.834c0 4.599-3.734 8.333-8.333 8.333h-29.919c.416 0 .752-.337.752-.752v-14.733c0-3.307-1.772-6.361-4.643-8.002-6.16-3.519-13.72-3.519-19.88 0-2.871 1.641-4.643 4.695-4.643 8.002v14.733c0 .415.336.752.752.752h-29.919c-4.599 0-8.333-3.734-8.333-8.333v-120.834c0-4.599 3.734-8.333 8.333-8.333h8.333v-8.333c0-2.302 1.866-4.167 4.167-4.167h12.5c2.301 0 4.167 1.865 4.167 4.167v4.166zm16.667 83.334c0-2.3-1.867-4.167-4.167-4.167h-20.833c-2.3 0-4.167 1.867-4.167 4.167v12.5c0 2.299 1.867 4.166 4.167 4.166h20.833c2.3 0 4.167-1.867 4.167-4.166zm-41.667 0c0-2.3-1.867-4.167-4.167-4.167h-20.833c-2.3 0-4.167 1.867-4.167 4.167v12.5c0 2.299 1.867 4.166 4.167 4.166h20.833c2.3 0 4.167-1.867 4.167-4.166zm41.667-29.167c0-2.3-1.867-4.167-4.167-4.167h-20.833c-2.3 0-4.167 1.867-4.167 4.167v12.5c0 2.3 1.867 4.167 4.167 4.167h20.833c2.3 0 4.167-1.867 4.167-4.167zm-41.667 0c0-2.3-1.867-4.167-4.167-4.167h-20.833c-2.3 0-4.167 1.867-4.167 4.167v12.5c0 2.3 1.867 4.167 4.167 4.167h20.833c2.3 0 4.167-1.867 4.167-4.167zm41.667-29.167c0-2.299-1.867-4.166-4.167-4.166h-20.833c-2.3 0-4.167 1.867-4.167 4.166v12.5c0 2.3 1.867 4.167 4.167 4.167h20.833c2.3 0 4.167-1.867 4.167-4.167zm-41.667 0c0-2.299-1.867-4.166-4.167-4.166h-20.833c-2.3 0-4.167 1.867-4.167 4.166v12.5c0 2.3 1.867 4.167 4.167 4.167h20.833c2.3 0 4.167-1.867 4.167-4.167z"/></svg>