<?xml version="1.0" encoding="UTF-8" standalone="no"?><!DOCTYPE svg PUBLIC "-//W3C//DTD SVG 1.1//EN" "http://www.w3.org/Graphics/SVG/1.1/DTD/svg11.dtd"><svg width="100%" height="100%" viewBox="0 0 150 150" version="1.1" xmlns="http://www.w3.org/2000/svg" xmlns:xlink="http://www.w3.org/1999/xlink" xml:space="preserve" xmlns:serif="http://www.serif.com/" style="fill-rule:evenodd;clip-rule:evenodd;stroke-linejoin:round;stroke-miterlimit:2;"><path d="M93.75,8.333l0,-4.166c0,-2.302 1.865,-4.167 4.167,-4.167l12.5,0c2.301,0 4.166,1.865 4.166,4.167l0,8.333l4.167,0c4.599,0 8.333,3.734 8.333,8.333l0,120.834c0,4.599 -3.734,8.333 -8.333,8.333l-29.919,0c0.416,0 0.752,-0.337 0.752,-0.752l0,-14.733c0,-3.307 -1.772,-6.361 -4.643,-8.002c-6.16,-3.519 -13.72,-3.519 -19.88,0c-2.871,1.641 -4.643,4.695 -4.643,8.002l0,14.733c0,0.415 0.336,0.752 0.752,0.752l-29.919,0c-4.599,0 -8.333,-3.734 -8.333,-8.333l0,-120.834c0,-4.599 3.734,-8.333 8.333,-8.333l8.333,0l0,-8.333c0,-2.302 1.866,-4.167 4.167,-4.167l12.5,0c2.301,0 4.167,1.865 4.167,4.167l0,4.166l33.333,0Zm16.667,83.334c0,-2.3 -1.867,-4.167 -4.167,-4.167l-20.833,0c-2.3,0 -4.167,1.867 -4.167,4.167l0,12.5c0,2.299 1.867,4.166 4.167,4.166l20.833,0c2.3,0 4.167,-1.867 4.167,-4.166l0,-12.5Zm-41.667,0c0,-2.3 -1.867,-4.167 -4.167,-4.167l-20.833,0c-2.3,0 -4.167,1.867 -4.167,4.167l0,12.5c0,2.299 1.867,4.166 4.167,4.166l20.833,0c2.3,0 4.167,-1.867 4.167,-4.166l0,-12.5Zm41.667,-29.167c0,-2.3 -1.867,-4.167 -4.167,-4.167l-20.833,0c-2.3,0 -4.167,1.867 -4.167,4.167l0,12.5c0,2.3 1.867,4.167 4.167,4.167l20.833,0c2.3,0 4.167,-1.867 4.167,-4.167l0,-12.5Zm-41.667,0c0,-2.3 -1.867,-4.167 -4.167,-4.167l-20.833,0c-2.3,0 -4.167,1.867 -4.167,4.167l0,12.5c0,2.3 1.867,4.167 4.167,4.167l20.833,0c2.3,0 4.167,-1.867 4.167,-4.167l0,-12.5Zm41.667,-29.167c0,-2.299 -1.867,-4.166 -4.167,-4.166l-20.833,0c-2.3,0 -4.167,1.867 -4.167,4.166l0,12.5c0,2.3 1.867,4.167 4.167,4.167l20.833,0c2.3,0 4.167,-1.867 4.167,-4.167l0,-12.5Zm-41.667,0c0,-2.299 -1.867,-4.166 -4.167,-4.166l-20.833,0c-2.3,0 -4.167,1.867 -4.167,4.166l0,12.5c0,2.3 1.867,4.167 4.167,4.167l20.833,0c2.3,0 4.167,-1.867 4.167,-4.167l0,-12.5Z"/></svg>