<svg xmlns="http://www.w3.org/2000/svg" fill="none" width="25" height="36"><rect width="25" height="33" y="3" fill="#FEC32A" rx="2"/><path fill="#FEC32A" d="M4 1c0-.6.4-1 1-1h3c.6 0 1 .4 1 1v2H4V1zM17 1c0-.6.4-1 1-1h3c.6 0 1 .4 1 1v2h-5V1z"/><path fill="#EAB52E" d="M9 2h8v1H9z"/><rect width="7" height="5" x="14" y="7" fill="#fff" rx="1"/><rect width="7" height="5" x="14" y="14" fill="#fff" rx="1"/><rect width="7" height="5" x="14" y="21" fill="#fff" rx="1"/><path fill="#fff" d="M9 32.3c0-.8.4-1.5 1.1-2 1.5-.8 3.3-.8 4.8 0 .7.5 1.1 1.2 1.1 2v3.5c0 .1 0 .2-.2.2H9.2c-.1 0-.2 0-.2-.2v-3.5z"/><rect width="7" height="5" x="4" y="7" fill="#fff" rx="1"/><rect width="7" height="5" x="4" y="14" fill="#fff" rx="1"/><rect width="7" height="5" x="4" y="21" fill="#fff" rx="1"/></svg>