<svg width="244" height="36" viewBox="0 0 244 36" fill="none" xmlns="http://www.w3.org/2000/svg">
<path d="M53.498 15.5312H50.5195L48.3516 23.4805H48.293L46.1152 15.5312H43.0586L46.6816 26H49.9043L53.498 15.5312ZM61.1348 22.7969C60.8711 23.5977 60.0703 24.1152 59.0254 24.1152C57.5703 24.1152 56.623 23.0898 56.623 21.5957V21.4199H63.8398V20.5508C63.8398 17.3672 61.916 15.3066 58.8691 15.3066C55.7734 15.3066 53.8203 17.4746 53.8203 20.8145C53.8203 24.1641 55.7539 26.2246 58.9766 26.2246C61.5645 26.2246 63.4395 24.8477 63.752 22.7969H61.1348ZM58.8984 17.416C60.168 17.416 61.0371 18.334 61.0957 19.6719H56.6523C56.75 18.3633 57.6484 17.416 58.8984 17.416ZM74.8262 19.4277C74.6992 17.0547 72.9023 15.3066 70.0703 15.3066C66.9355 15.3066 64.9336 17.3965 64.9336 20.7559C64.9336 24.1738 66.9355 26.2246 70.0898 26.2246C72.8438 26.2246 74.6895 24.6328 74.8359 22.1621H72.1797C72.0039 23.3047 71.2617 23.9883 70.1191 23.9883C68.7031 23.9883 67.8242 22.8164 67.8242 20.7559C67.8242 18.7344 68.7031 17.543 70.1094 17.543C71.2812 17.543 72.0137 18.3242 72.1797 19.4277H74.8262ZM77.6777 14.1152C78.5078 14.1152 79.1621 13.4512 79.1621 12.6504C79.1621 11.8398 78.5078 11.1855 77.6777 11.1855C76.8477 11.1855 76.1934 11.8398 76.1934 12.6504C76.1934 13.4512 76.8477 14.1152 77.6777 14.1152ZM76.2617 26H79.1133V15.5312H76.2617V26ZM81.0176 26H83.8691V19.9941C83.8691 18.6367 84.6797 17.6992 85.959 17.6992C87.2383 17.6992 87.8828 18.4805 87.8828 19.8477V26H90.7344V19.252C90.7344 16.8008 89.4258 15.3359 87.1016 15.3359C85.4902 15.3359 84.3867 16.0977 83.8301 17.3965H83.7715V15.5312H81.0176V26ZM97.3457 26.2246C100.51 26.2246 102.531 24.2031 102.531 20.7559C102.531 17.3574 100.48 15.3066 97.3457 15.3066C94.2109 15.3066 92.1602 17.3672 92.1602 20.7559C92.1602 24.1934 94.1816 26.2246 97.3457 26.2246ZM97.3457 24.0469C95.9395 24.0469 95.0508 22.8652 95.0508 20.7656C95.0508 18.6855 95.959 17.4844 97.3457 17.4844C98.7324 17.4844 99.6309 18.6855 99.6309 20.7656C99.6309 22.8652 98.7422 24.0469 97.3457 24.0469ZM103.83 18.6074C103.83 20.1797 104.855 21.1953 106.877 21.625L108.664 21.9961C109.689 22.2305 110.051 22.543 110.051 23.0996C110.051 23.7832 109.387 24.2227 108.312 24.2227C107.18 24.2227 106.525 23.7344 106.35 22.8164H103.566C103.752 24.877 105.422 26.2246 108.312 26.2246C111.008 26.2246 112.893 24.8672 112.893 22.8066C112.893 21.2734 111.994 20.4141 109.807 19.9551L108.02 19.5742C106.965 19.3496 106.574 18.9883 106.574 18.4512C106.574 17.7578 107.229 17.3086 108.215 17.3086C109.27 17.3086 109.904 17.8848 109.992 18.7344H112.619C112.561 16.6836 110.9 15.3066 108.215 15.3066C105.549 15.3066 103.83 16.6152 103.83 18.6074ZM123.811 19.4277C123.684 17.0547 121.887 15.3066 119.055 15.3066C115.92 15.3066 113.918 17.3965 113.918 20.7559C113.918 24.1738 115.92 26.2246 119.074 26.2246C121.828 26.2246 123.674 24.6328 123.82 22.1621H121.164C120.988 23.3047 120.246 23.9883 119.104 23.9883C117.688 23.9883 116.809 22.8164 116.809 20.7559C116.809 18.7344 117.688 17.543 119.094 17.543C120.266 17.543 120.998 18.3242 121.164 19.4277H123.811ZM128.303 26.166C129.611 26.166 130.91 25.5117 131.496 24.3984H131.555V26H134.309V18.8027C134.309 16.6934 132.561 15.3066 129.875 15.3066C127.102 15.3066 125.373 16.7031 125.266 18.7344H127.873C128.01 17.9629 128.684 17.4355 129.748 17.4355C130.822 17.4355 131.506 18.002 131.506 18.9785V19.6719L128.869 19.8281C126.262 19.9844 124.797 21.0879 124.797 22.9922C124.797 24.877 126.311 26.166 128.303 26.166ZM129.24 24.1055C128.273 24.1055 127.629 23.6172 127.629 22.8359C127.629 22.0938 128.234 21.6152 129.299 21.5371L131.506 21.4004V22.1621C131.506 23.2949 130.48 24.1055 129.24 24.1055ZM142.375 26.166C145.012 26.166 146.623 24.1348 146.623 20.7656C146.623 17.3867 145.002 15.3652 142.365 15.3652C140.871 15.3652 139.709 16.1074 139.133 17.3477H139.074V11.9082H136.223V26H139.035V24.2031H139.094C139.67 25.4238 140.842 26.166 142.375 26.166ZM141.389 17.6504C142.805 17.6504 143.703 18.8613 143.703 20.7656C143.703 22.6797 142.814 23.8711 141.389 23.8711C140.002 23.8711 139.064 22.6602 139.064 20.7656C139.064 18.8906 140.012 17.6504 141.389 17.6504ZM148.107 26H150.959V20.1504C150.959 18.6758 151.779 17.8164 153.186 17.8164C153.596 17.8164 153.986 17.8848 154.221 17.9824V15.4727C154.025 15.4141 153.742 15.3652 153.41 15.3652C152.18 15.3652 151.291 16.0879 150.92 17.416H150.861V15.5312H148.107V26ZM159.846 26.2246C163.01 26.2246 165.031 24.2031 165.031 20.7559C165.031 17.3574 162.98 15.3066 159.846 15.3066C156.711 15.3066 154.66 17.3672 154.66 20.7559C154.66 24.1934 156.682 26.2246 159.846 26.2246ZM159.846 24.0469C158.439 24.0469 157.551 22.8652 157.551 20.7656C157.551 18.6855 158.459 17.4844 159.846 17.4844C161.232 17.4844 162.131 18.6855 162.131 20.7656C162.131 22.8652 161.242 24.0469 159.846 24.0469ZM166.506 26H169.357V19.9941C169.357 18.6367 170.168 17.6992 171.447 17.6992C172.727 17.6992 173.371 18.4805 173.371 19.8477V26H176.223V19.252C176.223 16.8008 174.914 15.3359 172.59 15.3359C170.979 15.3359 169.875 16.0977 169.318 17.3965H169.26V15.5312H166.506V26ZM184.963 22.7969C184.699 23.5977 183.898 24.1152 182.854 24.1152C181.398 24.1152 180.451 23.0898 180.451 21.5957V21.4199H187.668V20.5508C187.668 17.3672 185.744 15.3066 182.697 15.3066C179.602 15.3066 177.648 17.4746 177.648 20.8145C177.648 24.1641 179.582 26.2246 182.805 26.2246C185.393 26.2246 187.268 24.8477 187.58 22.7969H184.963ZM182.727 17.416C183.996 17.416 184.865 18.334 184.924 19.6719H180.48C180.578 18.3633 181.477 17.416 182.727 17.416ZM188.967 18.6074C188.967 20.1797 189.992 21.1953 192.014 21.625L193.801 21.9961C194.826 22.2305 195.188 22.543 195.188 23.0996C195.188 23.7832 194.523 24.2227 193.449 24.2227C192.316 24.2227 191.662 23.7344 191.486 22.8164H188.703C188.889 24.877 190.559 26.2246 193.449 26.2246C196.145 26.2246 198.029 24.8672 198.029 22.8066C198.029 21.2734 197.131 20.4141 194.943 19.9551L193.156 19.5742C192.102 19.3496 191.711 18.9883 191.711 18.4512C191.711 17.7578 192.365 17.3086 193.352 17.3086C194.406 17.3086 195.041 17.8848 195.129 18.7344H197.756C197.697 16.6836 196.037 15.3066 193.352 15.3066C190.686 15.3066 188.967 16.6152 188.967 18.6074ZM201.291 26.1172C202.16 26.1172 202.863 25.4141 202.863 24.5449C202.863 23.666 202.16 22.9727 201.291 22.9727C200.412 22.9727 199.719 23.666 199.719 24.5449C199.719 25.4141 200.412 26.1172 201.291 26.1172ZM214.064 19.4277C213.938 17.0547 212.141 15.3066 209.309 15.3066C206.174 15.3066 204.172 17.3965 204.172 20.7559C204.172 24.1738 206.174 26.2246 209.328 26.2246C212.082 26.2246 213.928 24.6328 214.074 22.1621H211.418C211.242 23.3047 210.5 23.9883 209.357 23.9883C207.941 23.9883 207.062 22.8164 207.062 20.7559C207.062 18.7344 207.941 17.543 209.348 17.543C210.52 17.543 211.252 18.3242 211.418 19.4277H214.064ZM220.256 26.2246C223.42 26.2246 225.441 24.2031 225.441 20.7559C225.441 17.3574 223.391 15.3066 220.256 15.3066C217.121 15.3066 215.07 17.3672 215.07 20.7559C215.07 24.1934 217.092 26.2246 220.256 26.2246ZM220.256 24.0469C218.85 24.0469 217.961 22.8652 217.961 20.7656C217.961 18.6855 218.869 17.4844 220.256 17.4844C221.643 17.4844 222.541 18.6855 222.541 20.7656C222.541 22.8652 221.652 24.0469 220.256 24.0469ZM226.916 26H229.768V19.6816C229.768 18.5098 230.5 17.6895 231.584 17.6895C232.639 17.6895 233.273 18.3535 233.273 19.4766V26H236.018V19.6426C236.018 18.4805 236.73 17.6895 237.814 17.6895C238.918 17.6895 239.523 18.3535 239.523 19.5645V26H242.375V18.8516C242.375 16.7422 240.998 15.3359 238.947 15.3359C237.414 15.3359 236.164 16.166 235.695 17.4844H235.637C235.285 16.1172 234.23 15.3359 232.717 15.3359C231.291 15.3359 230.168 16.166 229.729 17.4258H229.67V15.5312H226.916V26Z" fill="white"/>
<rect y="3" width="25" height="33" rx="2" fill="#FEC32A"/>
<path d="M4 1C4 0.447715 4.44772 0 5 0H8C8.55228 0 9 0.447715 9 1V3H4V1Z" fill="#FEC32A"/>
<path d="M17 1C17 0.447715 17.4477 0 18 0H21C21.5523 0 22 0.447715 22 1V3H17V1Z" fill="#FEC32A"/>
<rect x="9" y="2" width="8" height="1" fill="#EAB52E"/>
<rect x="14" y="7" width="7" height="5" rx="1" fill="white"/>
<rect x="14" y="14" width="7" height="5" rx="1" fill="white"/>
<rect x="14" y="21" width="7" height="5" rx="1" fill="white"/>
<path d="M9 32.2836C9 31.4898 9.4253 30.757 10.1144 30.3632C11.5927 29.5185 13.4073 29.5185 14.8856 30.3632C15.5747 30.757 16 31.4898 16 32.2836V35.8195C16 35.9192 15.9192 36 15.8195 36H9.18054C9.08083 36 9 35.9192 9 35.8195V32.2836Z" fill="white"/>
<rect x="4" y="7" width="7" height="5" rx="1" fill="white"/>
<rect x="4" y="14" width="7" height="5" rx="1" fill="white"/>
<rect x="4" y="21" width="7" height="5" rx="1" fill="white"/>
</svg>
