<svg width="24" height="24" viewBox="0 0 24 24" fill="none" xmlns="http://www.w3.org/2000/svg">
<g clip-path="url(#clip0)">
<path d="M16.6071 14.2416C19.488 10.1734 18.5245 4.54027 14.4563 1.66002C10.3882 -1.22024 4.75501 -0.2574 1.87476 3.81143C-1.00549 7.87957 -0.0426553 13.5121 4.02617 16.3923C6.92983 18.4481 10.7688 18.6064 13.8314 16.7977L20.4859 23.4123C21.2045 24.1687 22.3999 24.1989 23.1563 23.4804C23.9127 22.7626 23.9429 21.5671 23.2251 20.8108C23.2024 20.7867 23.1804 20.7647 23.1563 20.7419L16.6071 14.2416ZM9.23541 14.8582C6.02067 14.8589 3.41434 12.2547 3.41227 9.03993C3.41158 5.8252 6.01585 3.21886 9.23128 3.21749C12.4419 3.21611 15.0468 5.81625 15.053 9.02685C15.0585 12.2423 12.4556 14.8527 9.23954 14.8582C9.23816 14.8582 9.23747 14.8582 9.23541 14.8582Z" fill="#88650C"/>
</g>
<defs>
<clipPath id="clip0">
<rect width="24" height="24" fill="white"/>
</clipPath>
</defs>
</svg>
