<svg width="18" height="23" viewBox="0 0 18 23" fill="none" xmlns="http://www.w3.org/2000/svg">
<path d="M18 19.9727L18 9.19141C18 8.0283 17.0537 7.08203 15.8906 7.08203L13.0781 7.08203L13.0781 8.48828L15.8906 8.48828C16.2783 8.48828 16.5938 8.8037 16.5938 9.19141L16.5937 19.9727C16.5937 20.3604 16.2783 20.6758 15.8906 20.6758L2.10938 20.6758C1.72167 20.6758 1.40625 20.3604 1.40625 19.9727L1.40625 9.19141C1.40625 8.8037 1.72167 8.48828 2.10938 8.48828L4.92188 8.48828L4.92188 7.08203L2.10938 7.08203C0.946268 7.08203 1.86599e-06 8.0283 1.81514e-06 9.19141L1.34388e-06 19.9727C1.29304e-06 21.1358 0.946267 22.082 2.10938 22.082L15.8906 22.082C17.0537 22.082 18 21.1358 18 19.9727Z" fill="#16181B"/>
<path d="M4.63074 4.36936L5.6251 5.36372L8.29697 2.69184L8.29697 14.7871L9.70322 14.7871L9.70322 2.69184L12.3751 5.36372L13.3695 4.36936L9.0001 5.21041e-08L4.63074 4.36936Z" fill="#16181B"/>
</svg>
